<svg width="318" height="34" viewBox="0 0 318 34" xmlns="http://www.w3.org/2000/svg"><title>Pinstripe.io</title><desc>Created with Sketch.</desc><g fill="none" fill-rule="evenodd"><g><g><path d="M38.043 4.518h1.272v29.48h-1.272V4.52z" fill="#1A1918"/><path d="M74.022 34c-.24 0-.467-.113-.7-.344L45.49 6.228v27.77h-1.272V5.087c0-.5.31-.826.787-.826.237 0 .467.114.7.345l27.79 27.467V4.518h1.315v28.657c0 .5-.308.824-.786.824" fill="#1A1918"/><path d="M188.213 4.518h1.272v29.48h-1.272V4.52z" fill="#1A1918"/><path d="M193.707 34V21.403h20.832c1.617 0 3.113-.163 4.45-.478 1.317-.316 2.47-.792 3.422-1.417.935-.612 1.674-1.408 2.194-2.364s.784-2.094.784-3.38c0-1.29-.266-2.443-.788-3.43-.524-.987-1.264-1.818-2.2-2.473-.957-.666-2.11-1.184-3.425-1.537-1.336-.36-2.83-.543-4.438-.543h-20.833V4.518h20.832c1.747 0 3.374.19 4.834.568 1.48.385 2.772.97 3.842 1.738 1.078.777 1.933 1.757 2.536 2.91.603 1.158.908 2.514.908 4.03 0 1.52-.306 2.863-.91 3.994-.606 1.127-1.463 2.07-2.545 2.805-1.076.73-2.37 1.268-3.842 1.605-1.458.334-3.08.502-4.824.502h-19.56V34h-1.273" fill="#1A1918"/><path d="M229.68 32.735h30.675V34H229.68v-1.265z" fill="#1A1918"/><path d="M229.68 4.518h30.675v1.265H229.68V4.518z" fill="#1A1918"/><path d="M229.68 18.326h30.675v1.266H229.68v-1.266z" fill="#1A1918"/><path d="M.877 34V21.403H21.71c1.618 0 3.115-.163 4.448-.478 1.317-.316 2.47-.792 3.424-1.417.936-.612 1.673-1.408 2.193-2.364.52-.954.783-2.093.783-3.38 0-1.29-.263-2.445-.785-3.43-.523-.987-1.264-1.818-2.202-2.473-.958-.666-2.11-1.184-3.425-1.537-1.333-.36-2.826-.543-4.434-.543H.878V4.518H21.71c1.75 0 3.374.19 4.834.568 1.482.385 2.773.97 3.84 1.738 1.082.777 1.935 1.757 2.538 2.91.603 1.158.91 2.514.91 4.03 0 1.52-.31 2.864-.912 3.994-.605 1.127-1.462 2.07-2.547 2.805-1.072.73-2.366 1.268-3.842 1.605-1.454.334-3.077.502-4.82.502H2.15V34H.876" fill="#1A1918"/><path d="M183.023 34L168.9 22.67h-18.762V34h-1.272V21.403H169.7c1.618 0 3.114-.163 4.447-.478 1.317-.316 2.47-.792 3.422-1.417.936-.612 1.675-1.408 2.193-2.364.52-.956.786-2.093.786-3.38 0-1.29-.267-2.443-.79-3.43-.52-.987-1.263-1.818-2.202-2.473-.956-.666-2.108-1.184-3.423-1.537-1.335-.36-2.826-.543-4.435-.543h-39.176V34h-1.274V5.782H89.86c-3.357 0-5.85.535-7.414 1.593-1.53 1.033-2.274 2.675-2.274 5.02 0 2.304.743 3.868 2.274 4.775 1.583.938 4.063 1.414 7.37 1.414h11.463c3.588 0 6.316.568 8.11 1.69 1.86 1.166 2.805 3.132 2.805 5.847 0 2.734-.93 4.762-2.766 6.026-1.783 1.23-4.526 1.853-8.15 1.853H78.827v-1.265h22.408c3.356 0 5.844-.536 7.39-1.592 1.52-1.033 2.254-2.677 2.254-5.022 0-2.306-.743-3.876-2.275-4.796-1.585-.95-4.05-1.434-7.326-1.434H89.815c-3.588 0-6.323-.568-8.133-1.69-1.875-1.164-2.826-3.118-2.826-5.804 0-2.735.93-4.762 2.766-6.027 1.784-1.23 4.54-1.852 8.193-1.852H169.7c1.745 0 3.37.19 4.835.568 1.478.385 2.77.97 3.838 1.738 1.08.777 1.935 1.757 2.538 2.91.605 1.158.91 2.514.91 4.03 0 1.52-.307 2.863-.91 3.994-.607 1.127-1.464 2.07-2.547 2.805-1.075.73-2.366 1.268-3.84 1.605-1.113.255-2.32.414-3.602.475L185.124 34h-2.1" fill="#1A1918"/><path d="M38.043 2.472h1.272v29.48h-1.272V2.473z" fill="#E9E523"/><path d="M74.022 31.953c-.24 0-.467-.11-.7-.342L45.49 4.183v27.77h-1.272V3.043c0-.503.31-.826.787-.826.237 0 .467.112.7.343l27.79 27.467V2.472h1.315V31.13c0 .5-.308.823-.786.823" fill="#E9E523"/><path d="M188.213 2.472h1.272v29.48h-1.272V2.473z" fill="#3BB6AE"/><path d="M193.707 31.953V19.358h20.832c1.617 0 3.113-.16 4.45-.478 1.317-.316 2.47-.792 3.422-1.415.935-.613 1.674-1.41 2.194-2.365.52-.956.784-2.094.784-3.38 0-1.288-.266-2.44-.788-3.43-.524-.987-1.264-1.818-2.2-2.47-.957-.67-2.11-1.187-3.425-1.54-1.336-.36-2.83-.543-4.438-.543h-20.833V2.472h20.832c1.747 0 3.374.192 4.834.57 1.48.383 2.772.97 3.842 1.736 1.078.777 1.933 1.757 2.536 2.913s.908 2.512.908 4.03c0 1.52-.306 2.86-.91 3.992-.606 1.127-1.463 2.07-2.545 2.807-1.076.726-2.37 1.265-3.842 1.603-1.458.333-3.08.503-4.824.503h-19.56v11.327h-1.273" fill="#E7E5E7"/><path d="M229.68 30.69h30.675v1.263H229.68V30.69z" fill="#E9E523"/><path d="M229.68 2.472h30.675v1.265H229.68V2.472z" fill="#E7E5E7"/><path d="M229.68 16.28h30.675v1.267H229.68V16.28z" fill="#E7E5E7"/><path d="M.877 31.953V19.358H21.71c1.618 0 3.115-.16 4.448-.478 1.317-.316 2.47-.792 3.424-1.415.936-.613 1.673-1.41 2.193-2.365.52-.954.783-2.092.783-3.38 0-1.29-.263-2.443-.785-3.428-.523-.99-1.264-1.82-2.202-2.473-.958-.67-2.11-1.187-3.425-1.54-1.333-.36-2.826-.543-4.434-.543H.878V2.472H21.71c1.75 0 3.374.192 4.834.57 1.482.383 2.773.97 3.84 1.736 1.082.777 1.935 1.757 2.538 2.913.603 1.156.91 2.512.91 4.03 0 1.52-.31 2.863-.912 3.992-.605 1.127-1.462 2.07-2.547 2.807-1.072.726-2.366 1.265-3.842 1.603-1.454.333-3.077.503-4.82.503H2.15v11.327H.876" fill="#E9E523"/><path d="M183.023 31.953L168.9 20.626h-18.762v11.327h-1.272V19.358H169.7c1.618 0 3.114-.16 4.447-.478 1.317-.316 2.47-.792 3.422-1.415.936-.613 1.675-1.41 2.193-2.365.52-.956.786-2.092.786-3.38 0-1.29-.267-2.44-.79-3.428-.52-.99-1.263-1.82-2.202-2.473-.956-.67-2.108-1.187-3.423-1.54-1.335-.36-2.826-.543-4.435-.543h-39.176v28.216h-1.274V3.737H89.86c-3.357 0-5.85.536-7.414 1.593-1.53 1.034-2.274 2.675-2.274 5.02 0 2.306.743 3.868 2.274 4.776 1.583.936 4.063 1.412 7.37 1.412h11.463c3.588 0 6.316.568 8.11 1.69 1.86 1.166 2.805 3.132 2.805 5.847 0 2.733-.93 4.76-2.766 6.026-1.783 1.23-4.526 1.853-8.15 1.853H78.827V30.69h22.408c3.356 0 5.844-.537 7.39-1.592 1.52-1.032 2.254-2.677 2.254-5.023 0-2.307-.743-3.877-2.275-4.795-1.585-.952-4.05-1.434-7.326-1.434H89.815c-3.588 0-6.323-.57-8.133-1.692-1.875-1.164-2.826-3.116-2.826-5.804 0-2.733.93-4.76 2.766-6.027 1.784-1.228 4.54-1.85 8.193-1.85H169.7c1.745 0 3.37.19 4.835.568 1.478.385 2.77.97 3.838 1.738 1.08.777 1.935 1.757 2.538 2.913.605 1.156.91 2.512.91 4.03 0 1.52-.307 2.86-.91 3.992-.607 1.127-1.464 2.07-2.547 2.807-1.075.726-2.366 1.265-3.84 1.603-1.113.254-2.32.413-3.602.474l14.203 11.356h-2.1" fill="#70C4C3"/><path d="M269.392 32.615c-.35.284-.79.424-1.33.424-.536 0-.98-.14-1.325-.425-.35-.285-.524-.678-.524-1.18 0-.537.174-.946.524-1.228.346-.285.79-.424 1.326-.426.538 0 .98.142 1.33.427.347.282.52.69.52 1.227 0 .503-.173.896-.52 1.18" fill-opacity=".05" fill="#fff"/><path d="M272.238 1.065h2.752l-.002 31.597-2.75.002v-31.6" fill-opacity=".05" fill="#fff"/><path d="M313.05 29.262c-3.37 2.612-8.466 3.918-15.296 3.92-6.798 0-11.888-1.306-15.27-3.92-3.384-2.612-5.076-6.754-5.074-12.42 0-5.636 1.697-9.764 5.097-12.374 3.4-2.614 8.48-3.922 15.247-3.922C304.52.544 309.604 1.854 313 4.468c3.4 2.61 5.1 6.738 5.1 12.373 0 5.668-1.684 9.81-5.05 12.422zm1.185-18.774c-.712-1.75-1.795-3.18-3.25-4.3-1.453-1.116-3.278-1.935-5.478-2.455-2.197-.52-4.782-.78-7.753-.777-3.003-.002-5.604.258-7.802.777-2.197.52-4.023 1.34-5.478 2.456-1.452 1.12-2.536 2.55-3.247 4.298-.712 1.748-1.067 3.866-1.067 6.353 0 4.977 1.447 8.55 4.34 10.72 2.89 2.174 7.31 3.262 13.254 3.26 5.944 0 10.355-1.086 13.23-3.26 2.878-2.17 4.318-5.743 4.316-10.72.002-2.486-.355-4.604-1.065-6.352z" fill-opacity=".05" fill="#fff"/></g></g></g></svg>