<?xml version="1.0" encoding="utf-8"?>
<!-- Generator: Adobe Illustrator 17.1.0, SVG Export Plug-In . SVG Version: 6.00 Build 0)  -->
<!DOCTYPE svg PUBLIC "-//W3C//DTD SVG 1.1//EN" "http://www.w3.org/Graphics/SVG/1.1/DTD/svg11.dtd">
<svg version="1.1" id="Layer_1" xmlns="http://www.w3.org/2000/svg" xmlns:xlink="http://www.w3.org/1999/xlink" x="0px" y="0px" xml:space="preserve">
<g>
	<g>
		<rect x="42.1" y="2.1" fill="#1D1D1B" width="1.4" height="33.1"/>
		<path fill="#1D1D1B" d="M82.3,35.2c-0.3,0-0.5-0.1-0.8-0.4L50.4,4v31.2H49V2.7c0-0.6,0.3-0.9,0.9-0.9c0.3,0,0.5,0.1,0.8,0.4
			L81.7,33V2.1h1.5v32.2C83.2,34.8,82.8,35.2,82.3,35.2z"/>
		<rect x="210" y="2.1" fill="#1D1D1B" width="1.4" height="33.1"/>
		<path fill="#1D1D1B" d="M216.1,35.2V21.1h23.3c1.8,0,3.5-0.2,5-0.5c1.5-0.4,2.8-0.9,3.8-1.6c1-0.7,1.9-1.6,2.5-2.7
			c0.6-1.1,0.9-2.4,0.9-3.8c0-1.4-0.3-2.7-0.9-3.8c-0.6-1.1-1.4-2-2.5-2.8c-1.1-0.7-2.4-1.3-3.8-1.7c-1.5-0.4-3.2-0.6-5-0.6h-23.3
			V2.1h23.3c2,0,3.8,0.2,5.4,0.6c1.7,0.4,3.1,1.1,4.3,2c1.2,0.9,2.2,2,2.8,3.3c0.7,1.3,1,2.8,1,4.5c0,1.7-0.3,3.2-1,4.5
			c-0.7,1.3-1.6,2.3-2.8,3.2c-1.2,0.8-2.6,1.4-4.3,1.8c-1.6,0.4-3.4,0.6-5.4,0.6h-21.9v12.7H216.1z"/>
		<rect x="256.4" y="33.8" fill="#1D1D1B" width="34.3" height="1.4"/>
		<rect x="256.4" y="2.1" fill="#1D1D1B" width="34.3" height="1.4"/>
		<rect x="256.4" y="17.6" fill="#1D1D1B" width="34.3" height="1.4"/>
		<path fill="#1D1D1B" d="M0.5,35.2V21.1h23.3c1.8,0,3.5-0.2,5-0.5c1.5-0.4,2.8-0.9,3.8-1.6c1-0.7,1.9-1.6,2.5-2.7
			c0.6-1.1,0.9-2.3,0.9-3.8c0-1.4-0.3-2.7-0.9-3.8c-0.6-1.1-1.4-2-2.5-2.8c-1.1-0.7-2.4-1.3-3.8-1.7c-1.5-0.4-3.2-0.6-5-0.6H0.5V2.1
			h23.3c2,0,3.8,0.2,5.4,0.6c1.7,0.4,3.1,1.1,4.3,2c1.2,0.9,2.2,2,2.8,3.3c0.7,1.3,1,2.8,1,4.5c0,1.7-0.3,3.2-1,4.5
			c-0.7,1.3-1.6,2.3-2.8,3.2c-1.2,0.8-2.6,1.4-4.3,1.8c-1.6,0.4-3.4,0.6-5.4,0.6H1.9v12.7H0.5z"/>
		<path fill="#1D1D1B" d="M204.2,35.2l-15.8-12.7h-21v12.7H166V21.1h23.3c1.8,0,3.5-0.2,5-0.5c1.5-0.4,2.8-0.9,3.8-1.6
			c1-0.7,1.9-1.6,2.5-2.7c0.6-1.1,0.9-2.4,0.9-3.8c0-1.4-0.3-2.7-0.9-3.8c-0.6-1.1-1.4-2-2.5-2.8c-1.1-0.7-2.4-1.3-3.8-1.7
			c-1.5-0.4-3.2-0.6-5-0.6h-43.8v31.7h-1.4V3.5h-44c-3.8,0-6.5,0.6-8.3,1.8c-1.7,1.2-2.5,3-2.5,5.6c0,2.6,0.8,4.3,2.5,5.4
			c1.8,1.1,4.5,1.6,8.2,1.6h12.8c4,0,7.1,0.6,9.1,1.9c2.1,1.3,3.1,3.5,3.1,6.6c0,3.1-1,5.4-3.1,6.8c-2,1.4-5.1,2.1-9.1,2.1H87.7
			v-1.4h25.1c3.8,0,6.5-0.6,8.3-1.8c1.7-1.2,2.5-3,2.5-5.6c0-2.6-0.8-4.3-2.5-5.4c-1.8-1.1-4.5-1.6-8.2-1.6H100
			c-4,0-7.1-0.6-9.1-1.9c-2.1-1.3-3.2-3.5-3.2-6.5c0-3.1,1-5.4,3.1-6.8c2-1.4,5.1-2.1,9.2-2.1h89.3c2,0,3.8,0.2,5.4,0.6
			c1.7,0.4,3.1,1.1,4.3,2c1.2,0.9,2.2,2,2.8,3.3c0.7,1.3,1,2.8,1,4.5c0,1.7-0.3,3.2-1,4.5c-0.7,1.3-1.6,2.3-2.8,3.2
			c-1.2,0.8-2.6,1.4-4.3,1.8c-1.2,0.3-2.6,0.5-4,0.5l15.9,12.8H204.2z"/>
		<path fill="#1D1D1B" d="M145.1,59.7c-0.4,0-0.7-0.1-0.8-0.3l-12.7-12.3h2l11.6,11.2l11.6-11.2h1.9l-12.7,12.3
			C145.6,59.6,145.4,59.7,145.1,59.7z"/>
	</g>
	<g>
		<g>
			<g>
				<rect x="42.1" y="0.1" fill="#F0E300" width="1.4" height="33.1"/>
			</g>
			<g>
				<path fill="#F0E300" d="M82.3,33.2c-0.3,0-0.5-0.1-0.8-0.4L50.4,2v31.2H49V0.7c0-0.6,0.3-0.9,0.9-0.9c0.3,0,0.5,0.1,0.8,0.4
					L81.7,31V0.1h1.5v32.2C83.2,32.8,82.8,33.2,82.3,33.2z"/>
			</g>
			<g>
				<rect x="210" y="0.1" fill="#3CB7BA" width="1.4" height="33.1"/>
			</g>
			<g>
				<path fill="#EDEBF1" d="M216.1,33.2V19.1h23.3c1.8,0,3.5-0.2,5-0.5c1.5-0.4,2.8-0.9,3.8-1.6c1-0.7,1.9-1.6,2.5-2.7
					c0.6-1.1,0.9-2.4,0.9-3.8c0-1.4-0.3-2.7-0.9-3.8c-0.6-1.1-1.4-2-2.5-2.8c-1.1-0.7-2.4-1.3-3.8-1.7c-1.5-0.4-3.2-0.6-5-0.6h-23.3
					V0.1h23.3c2,0,3.8,0.2,5.4,0.6c1.7,0.4,3.1,1.1,4.3,2c1.2,0.9,2.2,2,2.8,3.3c0.7,1.3,1,2.8,1,4.5c0,1.7-0.3,3.2-1,4.5
					c-0.7,1.3-1.6,2.3-2.8,3.2c-1.2,0.8-2.6,1.4-4.3,1.8c-1.6,0.4-3.4,0.6-5.4,0.6h-21.9v12.7H216.1z"/>
			</g>
			<g>
				<g>
					<rect x="256.4" y="31.8" fill="#F0E300" width="34.3" height="1.4"/>
				</g>
				<g>
					<rect x="256.4" y="0.1" fill="#EDEBF1" width="34.3" height="1.4"/>
				</g>
				<g>
					<rect x="256.4" y="15.6" fill="#FFFFFF" width="34.3" height="1.4"/>
				</g>
			</g>
			<g>
				<path fill="#F0E300" d="M0.5,33.2V19.1h23.3c1.8,0,3.5-0.2,5-0.5c1.5-0.4,2.8-0.9,3.8-1.6c1-0.7,1.9-1.6,2.5-2.7
					c0.6-1.1,0.9-2.3,0.9-3.8c0-1.4-0.3-2.7-0.9-3.8c-0.6-1.1-1.4-2-2.5-2.8c-1.1-0.7-2.4-1.3-3.8-1.7c-1.5-0.4-3.2-0.6-5-0.6H0.5
					V0.1h23.3c2,0,3.8,0.2,5.4,0.6c1.7,0.4,3.1,1.1,4.3,2c1.2,0.9,2.2,2,2.8,3.3c0.7,1.3,1,2.8,1,4.5c0,1.7-0.3,3.2-1,4.5
					c-0.7,1.3-1.6,2.3-2.8,3.2c-1.2,0.8-2.6,1.4-4.3,1.8c-1.6,0.4-3.4,0.6-5.4,0.6H1.9v12.7H0.5z"/>
			</g>
			<g>
				<path fill="#7EC9D3" d="M204.2,33.2l-15.8-12.7h-21v12.7H166V19.1h23.3c1.8,0,3.5-0.2,5-0.5c1.5-0.4,2.8-0.9,3.8-1.6
					c1-0.7,1.9-1.6,2.5-2.7c0.6-1.1,0.9-2.4,0.9-3.8c0-1.4-0.3-2.7-0.9-3.8c-0.6-1.1-1.4-2-2.5-2.8c-1.1-0.7-2.4-1.3-3.8-1.7
					c-1.5-0.4-3.2-0.6-5-0.6h-43.8v31.7h-1.4V1.5h-44c-3.8,0-6.5,0.6-8.3,1.8c-1.7,1.2-2.5,3-2.5,5.6c0,2.6,0.8,4.3,2.5,5.4
					c1.8,1.1,4.5,1.6,8.2,1.6h12.8c4,0,7.1,0.6,9.1,1.9c2.1,1.3,3.1,3.5,3.1,6.6c0,3.1-1,5.4-3.1,6.8c-2,1.4-5.1,2.1-9.1,2.1H87.7
					v-1.4h25.1c3.8,0,6.5-0.6,8.3-1.8c1.7-1.2,2.5-3,2.5-5.6c0-2.6-0.8-4.3-2.5-5.4c-1.8-1.1-4.5-1.6-8.2-1.6H100
					c-4,0-7.1-0.6-9.1-1.9c-2.1-1.3-3.2-3.5-3.2-6.5c0-3.1,1-5.4,3.1-6.8c2-1.4,5.1-2.1,9.2-2.1h89.3c2,0,3.8,0.2,5.4,0.6
					c1.7,0.4,3.1,1.1,4.3,2c1.2,0.9,2.2,2,2.8,3.3c0.7,1.3,1,2.8,1,4.5c0,1.7-0.3,3.2-1,4.5c-0.7,1.3-1.6,2.3-2.8,3.2
					c-1.2,0.8-2.6,1.4-4.3,1.8c-1.2,0.3-2.6,0.5-4,0.5l15.9,12.8H204.2z"/>
			</g>
			<g display="none">
				<g display="inline">
					<path fill="#9AC22B" d="M156.6-11.9L145-23.1l-11.6,11.2h-1.9l12.7-12.3c0.2-0.2,0.5-0.3,0.8-0.3c0.4,0,0.7,0.1,0.8,0.3
						l12.7,12.3H156.6z"/>
				</g>
			</g>
			<g>
				<g>
					<g>
						<path fill="#3CB7BA" d="M145.1,57.7c-0.4,0-0.7-0.1-0.8-0.3l-12.7-12.3h2l11.6,11.2l11.6-11.2h1.9l-12.7,12.3
							C145.6,57.6,145.4,57.7,145.1,57.7z"/>
					</g>
				</g>
			</g>
		</g>
	</g>
</g>
</svg>
