<svg xmlns="http://www.w3.org/2000/svg"><rect x="41.8" fill="#F0E300" width="1.6" height="33.2"/><path fill="#F0E300" d="M82.1 33.3c-.3 0-.6-.1-.8-.4l-31-30.7v31.1h-1.6v-32.6c0-.6.4-1 1-1 .3 0 .6.1.8.4l31 30.7v-30.8h1.6v32.2c0 .7-.4 1.1-1 1.1z"/><rect x="209.8" fill="#3CB7BA" width="1.6" height="33.2"/><path fill="#EDEBF1" d="M215.9 33.3v-14.3h23.4c1.8 0 3.5-.2 5-.5 1.5-.4 2.7-.9 3.8-1.6 1-.7 1.9-1.6 2.4-2.6.6-1.1.9-2.3.9-3.8 0-1.4-.3-2.7-.9-3.8-.6-1.1-1.4-2-2.4-2.8-1.1-.7-2.3-1.3-3.8-1.7-1.5-.4-3.1-.6-4.9-.6h-23.4v-1.6h23.4c2 0 3.8.2 5.4.6 1.7.4 3.1 1.1 4.3 2 1.2.9 2.2 2 2.9 3.3.7 1.3 1 2.8 1 4.6 0 1.7-.3 3.2-1 4.5-.7 1.3-1.6 2.3-2.9 3.2-1.2.8-2.7 1.4-4.3 1.8-1.6.4-3.5.6-5.4.6h-21.8v12.7h-1.7z"/><rect x="256.1" y="31.7" fill="#F0E300" width="34.4" height="1.6"/><rect x="256.1" fill="#EDEBF1" width="34.4" height="1.6"/><rect x="256.1" y="15.5" fill="#EDEBF1" width="34.4" height="1.6"/><path fill="#F0E300" d="M.3 33.3v-14.3h23.4c1.8 0 3.5-.2 5-.5 1.5-.4 2.7-.9 3.8-1.6 1-.7 1.9-1.6 2.4-2.6.6-1.1.9-2.3.9-3.8 0-1.4-.3-2.7-.9-3.8-.6-1.1-1.4-2-2.4-2.8-1.1-.7-2.3-1.3-3.8-1.7-1.5-.4-3.1-.6-4.9-.6h-23.5v-1.6h23.4c2 0 3.8.2 5.4.6 1.7.4 3.1 1.1 4.3 2 1.2.9 2.2 2 2.9 3.3.7 1.3 1 2.8 1 4.6 0 1.7-.3 3.2-1 4.5-.7 1.3-1.6 2.3-2.9 3.2-1.2.8-2.7 1.4-4.3 1.8-1.6.4-3.5.6-5.4.6h-21.9v12.7h-1.5z"/><path fill="#7EC9D3" d="M204 33.3l-15.8-12.7h-20.9v12.7h-1.6v-14.3h23.4c1.8 0 3.5-.2 5-.5 1.5-.4 2.7-.9 3.8-1.6 1-.7 1.9-1.6 2.4-2.6.6-1.1.9-2.3.9-3.8 0-1.4-.3-2.7-.9-3.8-.6-1.1-1.4-2-2.4-2.8-1.1-.7-2.3-1.3-3.8-1.7-1.5-.4-3.1-.6-4.9-.6h-43.7v31.7h-1.6v-31.7h-44c-3.7 0-6.5.6-8.3 1.8-1.7 1.1-2.5 3-2.5 5.6 0 2.6.8 4.3 2.5 5.3 1.8 1 4.5 1.6 8.2 1.6h12.8c4 0 7.1.6 9.1 1.9 2.1 1.3 3.2 3.5 3.2 6.6 0 3.1-1.1 5.4-3.1 6.8-2 1.4-5.1 2.1-9.2 2.1h-25.1v-1.6h25.1c3.7 0 6.5-.6 8.2-1.8 1.7-1.1 2.5-3 2.5-5.6 0-2.6-.8-4.3-2.5-5.3-1.8-1.1-4.5-1.6-8.2-1.6h-12.8c-4 0-7.1-.6-9.1-1.9-2.1-1.3-3.2-3.5-3.2-6.6 0-3.1 1.1-5.4 3.1-6.8 2-1.4 5.1-2.1 9.2-2.1h89.3c2 0 3.8.2 5.4.6 1.7.4 3.1 1.1 4.3 2 1.2.9 2.2 2 2.9 3.3.7 1.3 1 2.8 1 4.6 0 1.7-.3 3.2-1 4.5-.7 1.3-1.6 2.3-2.9 3.2-1.2.8-2.7 1.4-4.3 1.8-1.2.3-2.5.4-3.8.5l15.9 12.8h-2.6z"/></svg>